<?xml version="1.0" encoding="UTF-8"?>
<svg version="1.1" xmlns="http://www.w3.org/2000/svg" width="253" height="239">
<path d="M0 0 C1.1446875 -0.00773437 2.289375 -0.01546875 3.46875 -0.0234375 C6.5 0.375 6.5 0.375 8.38671875 1.6875 C10.25609287 4.52107762 9.78384309 7.08242016 9.5 10.375 C9.1697583 11.14344238 8.8395166 11.91188477 8.49926758 12.70361328 C6.53701284 17.94939665 7.17336089 23.71312535 7.1875 29.25 C7.17138672 30.50425781 7.15527344 31.75851563 7.13867188 33.05078125 C7.1351304 39.74417396 7.54648559 44.40562788 10.5 50.375 C10.5 52.355 10.5 54.335 10.5 56.375 C31.29 56.375 52.08 56.375 73.5 56.375 C74.49 52.745 75.48 49.115 76.5 45.375 C77.62083465 42.04264717 78.76384808 38.73829415 79.96875 35.4375 C80.29033081 34.5501416 80.61191162 33.6627832 80.9432373 32.74853516 C81.61656604 30.89579854 82.29224472 29.04391434 82.97021484 27.19287109 C84.00651419 24.35717477 85.02887469 21.51669126 86.05078125 18.67578125 C86.71009772 16.86688119 87.37022473 15.05827631 88.03125 13.25 C88.33446167 12.4031665 88.63767334 11.55633301 88.95007324 10.68383789 C89.24047485 9.89871826 89.53087646 9.11359863 89.83007812 8.3046875 C90.08084106 7.61616699 90.331604 6.92764648 90.58996582 6.21826172 C91.63102698 4.10960665 92.66833434 2.84752726 94.5 1.375 C97.57861328 1.01855469 97.57861328 1.01855469 101.3203125 1.046875 C101.97957733 1.04874817 102.63884216 1.05062134 103.31808472 1.05255127 C104.70836461 1.05926292 106.09862591 1.07316005 107.48876953 1.09375 C109.62420054 1.1249883 111.75889411 1.13472952 113.89453125 1.140625 C124.33651465 1.21151465 124.33651465 1.21151465 125.5 2.375 C125.78745638 4.34654429 126.00584123 6.32840874 126.1875 8.3125 C126.34798828 9.93478516 126.34798828 9.93478516 126.51171875 11.58984375 C126.5 14.375 126.5 14.375 124.5 16.375 C122.34521484 16.69384766 122.34521484 16.69384766 119.7109375 16.7890625 C118.29941406 16.84707031 118.29941406 16.84707031 116.859375 16.90625 C115.87453125 16.9371875 114.8896875 16.968125 113.875 17 C112.88242188 17.03867187 111.88984375 17.07734375 110.8671875 17.1171875 C108.41164615 17.2116314 105.9561159 17.29719875 103.5 17.375 C94.59451419 41.29010265 86.12670921 65.35634554 77.65461731 89.42759705 C73.559222 101.05752993 69.41432858 112.66950573 65.24584961 124.2734375 C62.94042915 130.76936526 61.78523218 138.36974809 64.58203125 144.90234375 C65.88819094 146.98514472 65.88819094 146.98514472 67.30859375 148.7890625 C70.11021407 152.5184325 69.95926638 156.92175632 69.5 161.375 C67.26967588 167.95445614 64.07750061 173.32296304 57.75 176.63671875 C52.05933439 178.5039684 45.51547026 178.76382857 40.0234375 176.234375 C34.95611112 172.62841241 31.47635152 168.30405455 29.5 162.375 C29.18603365 156.93291659 29.92926887 153.87255895 31.5 148.375 C10.71 148.375 -10.08 148.375 -31.5 148.375 C-31.17 149.695 -30.84 151.015 -30.5 152.375 C-29.78904812 159.22810993 -30.36709609 164.72710199 -34.5 170.375 C-39.26448887 175.5663317 -43.8198963 177.96609959 -50.875 178.75 C-57.14575308 178.10130141 -61.63180495 175.65615807 -65.875 171 C-69.97011733 165.76982297 -70.95520729 160.97550572 -70.5 154.375 C-70.12403716 152.97368395 -69.72774886 151.57768096 -69.3125 150.1875 C-69.044375 148.929375 -68.77625 147.67125 -68.5 146.375 C-69.84329588 144.27836809 -69.84329588 144.27836809 -71.5 142.375 C-71.8125 138.75 -71.8125 138.75 -71.5 135.375 C-69.5 133.375 -69.5 133.375 -67.42667198 133.12890434 C-66.56571733 133.13074793 -65.70476269 133.13259151 -64.81771851 133.13449097 C-63.83051315 133.13174164 -62.8433078 133.12899231 -61.82618713 133.12615967 C-60.73934128 133.13335022 -59.65249542 133.14054077 -58.53271484 133.14794922 C-57.39125504 133.14765717 -56.24979523 133.14736511 -55.07374573 133.14706421 C-51.28606669 133.14846191 -47.49858233 133.16404391 -43.7109375 133.1796875 C-41.09062813 133.18341606 -38.47031737 133.18626377 -35.8500061 133.18826294 C-29.64870306 133.19448499 -23.44747034 133.21090555 -17.2461983 133.23096192 C-10.18704583 133.25329843 -3.12789004 133.26430868 3.93128896 133.27435279 C18.45422895 133.29527119 32.97711349 133.3304612 47.5 133.375 C47.7165625 131.951875 47.7165625 131.951875 47.9375 130.5 C48.5 127.375 48.5 127.375 49.5 125.375 C11.22 125.375 -27.06 125.375 -66.5 125.375 C-71.13750547 101.02809631 -71.13750547 101.02809631 -72.45703125 92.83984375 C-72.60911545 91.90241837 -72.76119965 90.96499298 -72.91789246 89.99916077 C-73.22939487 88.0702649 -73.53926027 86.14110389 -73.84741211 84.21166992 C-74.32193357 81.25369494 -74.80842585 78.29782325 -75.29492188 75.34179688 C-75.59968544 73.44542921 -75.90374983 71.54894901 -76.20703125 69.65234375 C-76.35276077 68.77642075 -76.4984903 67.90049774 -76.64863586 66.99803162 C-76.77594589 66.18520218 -76.90325592 65.37237274 -77.03442383 64.53491211 C-77.14893387 63.82547958 -77.26344391 63.11604706 -77.38142395 62.38511658 C-77.5 60.375 -77.5 60.375 -76.5 56.375 C-54.72 56.375 -32.94 56.375 -10.5 56.375 C-10.17 53.735 -9.84 51.095 -9.5 48.375 C-8.84091342 47.03790348 -8.175153 45.7040563 -7.5 44.375 C-7.19305275 41.48973555 -7.19305275 41.48973555 -7.234375 38.32421875 C-7.23179688 37.15052734 -7.22921875 35.97683594 -7.2265625 34.76757812 C-7.23816406 32.93356445 -7.23816406 32.93356445 -7.25 31.0625 C-7.24226563 29.85142578 -7.23453125 28.64035156 -7.2265625 27.39257812 C-7.23989858 21.30132533 -7.49409355 16.1273465 -9.5 10.375 C-10.01818182 4.15681818 -10.01818182 4.15681818 -8.38671875 1.6953125 C-5.60789502 -0.24928879 -3.35366936 -0.02265993 0 0 Z M-25.5 69.375 C-25.57313567 71.90549402 -25.59247527 74.40804837 -25.5625 76.9375 C-25.55798828 77.64841797 -25.55347656 78.35933594 -25.54882812 79.09179688 C-25.53700864 80.85290013 -25.51907263 82.61396036 -25.5 84.375 C-20.88 84.375 -16.26 84.375 -11.5 84.375 C-11.47314905 81.89576199 -11.45323453 79.4168116 -11.4375 76.9375 C-11.42912109 76.23044922 -11.42074219 75.52339844 -11.41210938 74.79492188 C-11.40346412 72.98806441 -11.44779989 71.18112397 -11.5 69.375 C-12.58169646 68.06952245 -12.58169646 68.06952245 -15.1875 68.2421875 C-16.280625 68.24476562 -17.37375 68.24734375 -18.5 68.25 C-19.593125 68.24742188 -20.68625 68.24484375 -21.8125 68.2421875 C-24.41830354 68.06952245 -24.41830354 68.06952245 -25.5 69.375 Z M40.5 69.375 C40.42679837 71.9077765 40.40772431 74.40603918 40.4375 76.9375 C40.458125 79.391875 40.47875 81.84625 40.5 84.375 C48.09 84.375 55.68 84.375 63.5 84.375 C64.325 82.291875 65.15 80.20875 66 78.0625 C66.4640625 76.89074219 66.928125 75.71898438 67.40625 74.51171875 C68.66462513 71.45653552 68.66462513 71.45653552 68.5 68.375 C64.02084672 68.34613662 59.54171709 68.32824813 55.0625 68.3125 C53.78310547 68.30412109 52.50371094 68.29574219 51.18554688 68.28710938 C49.97060547 68.28388672 48.75566406 68.28066406 47.50390625 68.27734375 C46.37799072 68.27210693 45.2520752 68.26687012 44.09204102 68.26147461 C41.57029129 68.07954552 41.57029129 68.07954552 40.5 69.375 Z M-48.90234375 68.59375 C-50.01899414 68.66142578 -50.01899414 68.66142578 -51.15820312 68.73046875 C-52.28645508 68.80201172 -52.28645508 68.80201172 -53.4375 68.875 C-54.21673828 68.92269531 -54.99597656 68.97039062 -55.79882812 69.01953125 C-57.69933589 69.13612682 -59.59968554 69.25529515 -61.5 69.375 C-61.19257097 71.68817961 -60.87892298 74.00053352 -60.5625 76.3125 C-60.38847656 77.60027344 -60.21445312 78.88804688 -60.03515625 80.21484375 C-59.83837577 83.22966313 -59.83837577 83.22966313 -58.5 84.375 C-56.93827255 84.46185603 -55.37270656 84.48202219 -53.80859375 84.47265625 C-52.86435547 84.46943359 -51.92011719 84.46621094 -50.94726562 84.46289062 C-49.45743164 84.45032227 -49.45743164 84.45032227 -47.9375 84.4375 C-46.94041016 84.43298828 -45.94332031 84.42847656 -44.91601562 84.42382812 C-42.44398513 84.41200023 -39.97198528 84.39406415 -37.5 84.375 C-37.5 79.095 -37.5 73.815 -37.5 68.375 C-43.21827792 68.36577801 -43.21827792 68.36577801 -48.90234375 68.59375 Z M11.5 69.375 C11.5 74.325 11.5 79.275 11.5 84.375 C17.11 84.375 22.72 84.375 28.5 84.375 C28.5 79.425 28.5 74.475 28.5 69.375 C22.89 69.375 17.28 69.375 11.5 69.375 Z M-56.5 96.375 C-56.37625 98.06625 -56.2525 99.7575 -56.125 101.5 C-56.05539063 102.45132813 -55.98578125 103.40265625 -55.9140625 104.3828125 C-55.5147152 107.94152789 -55.5147152 107.94152789 -53.5 113.375 C-48.22 113.375 -42.94 113.375 -37.5 113.375 C-37.5 107.765 -37.5 102.155 -37.5 96.375 C-43.77 96.375 -50.04 96.375 -56.5 96.375 Z M-25.5 96.375 C-25.5 101.985 -25.5 107.595 -25.5 113.375 C-24.118125 113.560625 -22.73625 113.74625 -21.3125 113.9375 C-20.53519531 114.04191406 -19.75789063 114.14632812 -18.95703125 114.25390625 C-16.05323393 114.49724112 -16.05323393 114.49724112 -11.5 113.375 C-11.5 107.765 -11.5 102.155 -11.5 96.375 C-16.12 96.375 -20.74 96.375 -25.5 96.375 Z M12.5 96.375 C11.31318274 99.93545177 11.40310168 102.81308337 11.4375 106.5625 C11.458125 108.810625 11.47875 111.05875 11.5 113.375 C17.11 113.375 22.72 113.375 28.5 113.375 C28.5 107.765 28.5 102.155 28.5 96.375 C23.22 96.375 17.94 96.375 12.5 96.375 Z M40.5 96.375 C40.5 101.985 40.5 107.595 40.5 113.375 C42.86613456 114.55806728 44.36780736 114.50854608 47 114.5 C47.7940625 114.50257813 48.588125 114.50515625 49.40625 114.5078125 C51.55918534 114.50777996 51.55918534 114.50777996 53.5 113.375 C54.46525568 111.08763654 55.32064586 108.84291525 56.125 106.5 C56.35445312 105.86191406 56.58390625 105.22382813 56.8203125 104.56640625 C57.82486598 101.70223295 58.5 99.43249257 58.5 96.375 C52.56 96.375 46.62 96.375 40.5 96.375 Z M-59.5 151.375 C-61.41317404 155.6796416 -61.73784379 157.58218738 -60.375 162.125 C-58.05749124 166.14201519 -56.41985374 167.66768546 -52.125 169.25 C-47.89403094 169.45147472 -45.12919427 167.44240314 -41.6875 165.1875 C-39.71554214 162.17766958 -39.5068848 158.88624934 -39.5 155.375 C-40.26152103 152.02430745 -41.29878242 150.59397207 -43.625 148.0625 C-49.95330361 144.34806092 -55.14113748 145.34951357 -59.5 151.375 Z M40.5 150.375 C38.64756084 154.07987832 39.0414838 158.33114188 39.5 162.375 C41.30861608 165.59031748 42.71343022 166.9196175 45.875 168.75 C49.22651613 169.54798003 51.20311982 169.40527506 54.5 168.375 C58.00306403 165.80608638 59.74479922 163.6763689 60.5 159.4375 C60.76795965 155.37982536 59.79497489 152.7778938 57.5 149.375 C54.90010102 146.48622335 53.5094552 146.37605058 49.5625 145.9375 C45.47471813 146.08240272 43.37600284 147.41184556 40.5 150.375 Z " fill="#D1BA75" transform="translate(110.5,30.625)"/>
<path d="M0 0 C1 3 1 3 0 6 C-0.71198901 13.43519948 -0.85114205 19.33383744 3.80859375 25.4140625 C6.61021407 29.1434325 6.45926638 33.54675632 6 38 C3.76967588 44.57945614 0.57750061 49.94796304 -5.75 53.26171875 C-11.44066561 55.1289684 -17.98452974 55.38882857 -23.4765625 52.859375 C-28.54388888 49.25341241 -32.02364848 44.92905455 -34 39 C-34.31396635 33.55791659 -33.57073113 30.49755895 -32 25 C-53.45 25 -74.9 25 -97 25 C-97 24.34 -97 23.68 -97 23 C-74.89 23 -52.78 23 -30 23 C-29.01 25.475 -29.01 25.475 -28 28 C-29.375 30.5 -29.375 30.5 -31 33 C-31.25196129 35.70953551 -31.25196129 35.70953551 -31 38 C-30.01 37.67 -29.02 37.34 -28 37 C-27.87044922 36.00419922 -27.87044922 36.00419922 -27.73828125 34.98828125 C-27.05298603 30.68160942 -26.39990236 27.59379442 -23.9375 23.9375 C-19.21170567 20.82048672 -14.51303576 20.58116071 -9 21.5 C-8.34 21.665 -7.68 21.83 -7 22 C-6.505 21.505 -6.505 21.505 -6 21 C-5.34 21 -4.68 21 -4 21 C-2.66666667 18 -2.66666667 18 -4 15 C-4.66 15.66 -5.32 16.32 -6 17 C-6.35584349 12.72987817 -5.55699032 11.31461709 -3 8 C-1.87403916 5.36768615 -0.94677608 2.70507453 0 0 Z M-23 27 C-24.85243916 30.70487832 -24.4585162 34.95614188 -24 39 C-22.19138392 42.21531748 -20.78656978 43.5446175 -17.625 45.375 C-14.27348387 46.17298003 -12.29688018 46.03027506 -9 45 C-5.49693597 42.43108638 -3.75520078 40.3013689 -3 36.0625 C-2.73204035 32.00482536 -3.70502511 29.4028938 -6 26 C-8.59989898 23.11122335 -9.9905448 23.00105058 -13.9375 22.5625 C-18.02528187 22.70740272 -20.12399716 24.03684556 -23 27 Z " fill="#D4C285" transform="translate(174,154)"/>
<path d="M0 0 C0.33 0.99 0.66 1.98 1 3 C1.99 2.34 2.98 1.68 4 1 C5.66614608 0.95834635 7.33385392 0.95834635 9 1 C9.99 0.67 10.98 0.34 12 0 C12.99 5.94 13.98 11.88 15 18 C20.94 18.33 26.88 18.66 33 19 C33.33 18.34 33.66 17.68 34 17 C34 17.66 34 18.32 34 19 C34.66 19.33 35.32 19.66 36 20 C36 20.66 36 21.32 36 22 C36.99 22.66 37.98 23.32 39 24 C38.67 24.66 38.34 25.32 38 26 C40.7839183 24.60804085 40.97898997 22.84424221 42 20 C42.99 20.66 43.98 21.32 45 22 C45.66 21.34 46.32 20.68 47 20 C49.3828125 19.8046875 49.3828125 19.8046875 52.125 19.875 C53.03507812 19.89304688 53.94515625 19.91109375 54.8828125 19.9296875 C55.58148438 19.95289063 56.28015625 19.97609375 57 20 C57.495 22.475 57.495 22.475 58 25 C57.01 25 56.02 25 55 25 C55.495 26.485 55.495 26.485 56 28 C53.07081707 28.97639431 51.20974262 29.12136181 48.16137695 29.11352539 C46.69019157 29.11341209 46.69019157 29.11341209 45.18928528 29.11329651 C44.13295395 29.10813522 43.07662262 29.10297394 41.98828125 29.09765625 C40.36323921 29.09553383 40.36323921 29.09553383 38.70536804 29.09336853 C35.24105075 29.08776559 31.7767978 29.07521258 28.3125 29.0625 C25.96549572 29.05748538 23.61849044 29.05292241 21.27148438 29.04882812 C15.51430092 29.03779521 9.75715506 29.0210542 4 29 C3.67 26.36 3.34 23.72 3 21 C2.34 21 1.68 21 1 21 C0.07907719 16.34462644 -0.12205997 11.85314567 -0.0625 7.125 C-0.05798828 6.43664062 -0.05347656 5.74828125 -0.04882812 5.0390625 C-0.03716336 3.35933665 -0.01923271 1.67965625 0 0 Z " fill="#B08C4E" transform="translate(41,126)"/>
<path d="M0 0 C0.68429077 -0.00095673 1.36858154 -0.00191345 2.0736084 -0.00289917 C3.52286877 -0.0035808 4.97213218 -0.00172773 6.42138672 0.00244141 C8.64687928 0.00778998 10.87217001 0.0024959 13.09765625 -0.00390625 C14.50260461 -0.00324547 15.90755285 -0.0019643 17.3125 0 C18.59962891 0.00112793 19.88675781 0.00225586 21.21289062 0.00341797 C24.15625 0.1328125 24.15625 0.1328125 25.15625 1.1328125 C25.44370638 3.10435679 25.66209123 5.08622124 25.84375 7.0703125 C25.95074219 8.15183594 26.05773437 9.23335937 26.16796875 10.34765625 C26.15625 13.1328125 26.15625 13.1328125 24.15625 15.1328125 C22.04907227 15.40405273 22.04907227 15.40405273 19.47265625 15.44140625 C18.54517578 15.46654297 17.61769531 15.49167969 16.66210938 15.51757812 C14.703841 15.55266323 12.74550037 15.58392892 10.78710938 15.61132812 C9.85833984 15.63775391 8.92957031 15.66417969 7.97265625 15.69140625 C7.12131104 15.70486084 6.26996582 15.71831543 5.39282227 15.73217773 C2.69416566 16.21558517 1.91402132 17.09499057 0.15625 19.1328125 C-0.50375 19.4628125 -1.16375 19.7928125 -1.84375 20.1328125 C-1.51375 21.1228125 -1.18375 22.1128125 -0.84375 23.1328125 C-1.953125 25.32421875 -1.953125 25.32421875 -3.59375 27.6953125 C-4.12484375 28.48035156 -4.6559375 29.26539062 -5.203125 30.07421875 C-6.84375 32.1328125 -6.84375 32.1328125 -9.84375 34.1328125 C-11.16375 33.4728125 -12.48375 32.8128125 -13.84375 32.1328125 C-13.84375 28.5028125 -13.84375 24.8728125 -13.84375 21.1328125 C-13.18375 21.1328125 -12.52375 21.1328125 -11.84375 21.1328125 C-11.18375 19.1528125 -10.52375 17.1728125 -9.84375 15.1328125 C-9.18375 15.1328125 -8.52375 15.1328125 -7.84375 15.1328125 C-7.85535156 14.13378906 -7.86695313 13.13476562 -7.87890625 12.10546875 C-7.88792969 10.81511719 -7.89695313 9.52476563 -7.90625 8.1953125 C-7.91785156 6.90753906 -7.92945313 5.61976562 -7.94140625 4.29296875 C-7.7664879 -1.3673892 -5.04451773 0.00442058 0 0 Z M-11.84375 34.1328125 C-9.84375 35.1328125 -9.84375 35.1328125 -9.84375 35.1328125 Z " fill="#B08C55" transform="translate(210.84375,31.8671875)"/>
<path d="M0 0 C2.60078014 0.03859605 5.15696799 0.1458703 7.75 0.3125 C8.46671875 0.34794922 9.1834375 0.38339844 9.921875 0.41992188 C13.94671562 0.66777511 17.44858103 1.01418748 21 3 C22.36664256 7.09992768 21.10676552 8.94919365 19.5625 12.9375 C17.99578011 16.99731094 17 19.62412787 17 24 C16.7215625 24.9590625 16.7215625 24.9590625 16.4375 25.9375 C15.88794735 28.52824823 16.36372878 30.4549151 17 33 C16.236875 33.556875 15.47375 34.11375 14.6875 34.6875 C11.88776227 36.80210987 11.88776227 36.80210987 10.625 39.6875 C9 42 9 42 5.84790039 42.64990234 C2.11036531 42.98995851 -1.44199073 43.03777976 -5.19140625 42.9140625 C-6.67586246 42.87035562 -8.16031885 42.82665481 -9.64477539 42.78295898 C-10.83902634 42.74439285 -10.83902634 42.74439285 -12.05740356 42.70504761 C-16.52742031 42.56221313 -20.99801594 42.44216475 -25.46875 42.32421875 C-26.47780899 42.29757645 -27.48686798 42.27093414 -28.52650452 42.2434845 C-43.73063894 41.86014976 -58.93896922 41.67783548 -74.14631271 41.47045135 C-76.57012973 41.43739595 -78.99394278 41.40406209 -81.41775513 41.3706665 C-90.61179883 41.24419898 -99.80587707 41.12058233 -109 41 C-109 40.67 -109 40.34 -109 40 C-70.39 40 -31.78 40 8 40 C8.33 38.02 8.66 36.04 9 34 C9.495 33.01 9.495 33.01 10 32 C-28.28 32 -66.56 32 -106 32 C-106.33 29.03 -106.66 26.06 -107 23 C-106.67 23 -106.34 23 -106 23 C-105.67 25.64 -105.34 28.28 -105 31 C-66.39 30.34 -27.78 29.68 12 29 C12 28.01 12 27.02 12 26 C11.34 26.33 10.68 26.66 10 27 C10 26.34 10 25.68 10 25 C7.03 25.33 4.06 25.66 1 26 C1.99 25.505 1.99 25.505 3 25 C2.505 23.515 2.505 23.515 2 22 C1.34 21.67 0.68 21.34 0 21 C-0.19592461 17.68794116 -0.38032746 14.37534146 -0.5625 11.0625 C-0.64661133 9.64420898 -0.64661133 9.64420898 -0.73242188 8.19726562 C-0.78076172 7.29814453 -0.82910156 6.39902344 -0.87890625 5.47265625 C-0.94960327 4.22367554 -0.94960327 4.22367554 -1.02172852 2.94946289 C-1 1 -1 1 0 0 Z M1 3 C1 8.61 1 14.22 1 20 C3.36613456 21.18306728 4.86780736 21.13354608 7.5 21.125 C8.2940625 21.12757813 9.088125 21.13015625 9.90625 21.1328125 C12.05918534 21.13277996 12.05918534 21.13277996 14 20 C14.96525568 17.71263654 15.82064586 15.46791525 16.625 13.125 C16.85445312 12.48691406 17.08390625 11.84882813 17.3203125 11.19140625 C18.32486598 8.32723295 19 6.05749257 19 3 C13.06 3 7.12 3 1 3 Z " fill="#E6DFC4" transform="translate(150,124)"/>
<path d="M0 0 C1.71703125 -0.01160156 1.71703125 -0.01160156 3.46875 -0.0234375 C6.5 0.375 6.5 0.375 8.38671875 1.6875 C10.25609287 4.52107762 9.78384309 7.08242016 9.5 10.375 C9.1697583 11.14344238 8.8395166 11.91188477 8.49926758 12.70361328 C6.53701284 17.94939665 7.17336089 23.71312535 7.1875 29.25 C7.17138672 30.50425781 7.15527344 31.75851563 7.13867188 33.05078125 C7.1351304 39.74417396 7.54648559 44.40562788 10.5 50.375 C10.5 52.355 10.5 54.335 10.5 56.375 C31.29 56.375 52.08 56.375 73.5 56.375 C73.5 56.705 73.5 57.035 73.5 57.375 C56.48939479 58.20457037 39.52999894 58.51080541 22.5 58.375 C22.5 59.035 22.5 59.695 22.5 60.375 C20.8540349 62.06211423 19.18762851 63.7295622 17.5 65.375 C17.5 65.705 17.5 66.035 17.5 66.375 C18.24765625 66.25640625 18.9953125 66.1378125 19.765625 66.015625 C27.90994854 64.94961407 27.90994854 64.94961407 31.1875 67.3125 C31.620625 67.993125 32.05375 68.67375 32.5 69.375 C32.17 69.87 31.84 70.365 31.5 70.875 C30.04579212 74.5105197 30.31073989 77.46362439 30.5 81.375 C30.83 82.035 31.16 82.695 31.5 83.375 C30.84 84.365 30.18 85.355 29.5 86.375 C26.78849077 86.76151546 24.28401293 86.97872432 21.5625 87.0625 C20.83353516 87.09666016 20.10457031 87.13082031 19.35351562 87.16601562 C15.73313951 87.3286173 12.12315853 87.375 8.5 87.375 C8.44183377 83.95840509 8.40634805 80.54193795 8.375 77.125 C8.35824219 76.15691406 8.34148437 75.18882813 8.32421875 74.19140625 C8.31777344 73.25683594 8.31132813 72.32226562 8.3046875 71.359375 C8.29421387 70.50053711 8.28374023 69.64169922 8.27294922 68.75683594 C8.6271437 65.04122156 9.88651209 62.98848791 12.5 60.375 C12.5 59.715 12.5 59.055 12.5 58.375 C11.015 58.87 11.015 58.87 9.5 59.375 C4.00832205 51.13748308 5.25183508 39.67593577 5.375 30.1875 C5.3850607 28.84050153 5.39418103 27.49349569 5.40234375 26.14648438 C5.42569396 22.88912979 5.4584423 19.63216451 5.5 16.375 C3.85 16.375 2.2 16.375 0.5 16.375 C0.5 15.385 0.5 14.395 0.5 13.375 C1.16 13.375 1.82 13.375 2.5 13.375 C3.27802187 11.0734589 3.27802187 11.0734589 3.5 8.375 C2.16846734 6.06995956 2.16846734 6.06995956 0.5 4.375 C-3.46 6.355 -3.46 6.355 -7.5 8.375 C-7.17 11.345 -6.84 14.315 -6.5 17.375 C-9.02680715 12.32138569 -9.90316588 9.01932226 -9.5 3.375 C-7.06693439 -0.34313548 -4.1850606 -0.02827744 0 0 Z M11.5 69.375 C11.5 74.325 11.5 79.275 11.5 84.375 C17.11 84.375 22.72 84.375 28.5 84.375 C28.5 79.425 28.5 74.475 28.5 69.375 C22.89 69.375 17.28 69.375 11.5 69.375 Z " fill="#EDE1A2" transform="translate(110.5,30.625)"/>
<path d="M0 0 C0.33 0 0.66 0 1 0 C1 3.96 1 7.92 1 12 C0.34 12 -0.32 12 -1 12 C-1.144375 12.61875 -1.28875 13.2375 -1.4375 13.875 C-2 16 -2 16 -3 18 C-3.66 18 -4.32 18 -5 18 C-4.91621094 18.62648438 -4.83242187 19.25296875 -4.74609375 19.8984375 C-4.64425781 20.71570313 -4.54242188 21.53296875 -4.4375 22.375 C-4.33308594 23.18710937 -4.22867188 23.99921875 -4.12109375 24.8359375 C-4 27 -4 27 -5 29 C-3.35 29.33 -1.7 29.66 0 30 C0.96239452 28.75312408 1.91974009 27.50235031 2.875 26.25 C3.40867188 25.55390625 3.94234375 24.8578125 4.4921875 24.140625 C5.89238914 22.15277397 6.97855265 20.20156614 8 18 C7.34 17.67 6.68 17.34 6 17 C7.32 16.34 8.64 15.68 10 15 C9.38024337 19.47766749 8.25376038 23.46430679 6.71484375 27.7109375 C6.49429825 28.32393707 6.27375275 28.93693665 6.04652405 29.56851196 C5.34830044 31.50577673 4.64303353 33.44038706 3.9375 35.375 C3.45981664 36.69644485 2.9825985 38.01805796 2.50585938 39.33984375 C1.34180164 42.56157929 0.1730383 45.78152576 -1 49 C-1.66 49 -2.32 49 -3 49 C-3.1546875 49.928125 -3.1546875 49.928125 -3.3125 50.875 C-4 53 -4 53 -7 55 C-8.9896995 55.39013716 -10.99019869 55.73202649 -13 56 C-12.67 54.68 -12.34 53.36 -12 52 C-14.475 52.495 -14.475 52.495 -17 53 C-17 52.34 -17 51.68 -17 51 C-16.34 51 -15.68 51 -15 51 C-15.495 49.515 -15.495 49.515 -16 48 C-15.0625 45.3125 -15.0625 45.3125 -14 43 C-13.34 43 -12.68 43 -12 43 C-11.42650588 40.26686136 -10.93369643 37.54902615 -10.52734375 34.78515625 C-8.59784712 22.60760469 -4.45827866 11.461881 0 0 Z " fill="#BB9B5E" transform="translate(202,35)"/>
<path d="M0 0 C0.66 0.66 1.32 1.32 2 2 C1.87109375 4.35546875 1.87109375 4.35546875 1.4375 7.1875 C0.86033864 12.55791609 1.05335853 15.43745837 4 20 C8.10185576 22.67512332 12.39019505 24.49374688 17.3125 23.5625 C17.869375 23.376875 18.42625 23.19125 19 23 C19 23.99 19 24.98 19 26 C18.01 26.33 17.02 26.66 16 27 C16 27.99 16 28.98 16 30 C4.12040268 31.9854945 4.12040268 31.9854945 -0.60546875 29.7890625 C-5.1318483 26.03547946 -7.86294853 21.77622144 -9 16 C-9.25 12.25 -9.25 12.25 -9 9 C-8.95875 8.236875 -8.9175 7.47375 -8.875 6.6875 C-8 5 -8 5 -4.9375 3.75 C-3.968125 3.5025 -2.99875 3.255 -2 3 C-2 2.34 -2 1.68 -2 1 C-1.34 0.67 -0.68 0.34 0 0 Z " fill="#BA9C72" transform="translate(49,176)"/>
<path d="M0 0 C1.98 0 3.96 0 6 0 C6.33 0.66 6.66 1.32 7 2 C6.34 2 5.68 2 5 2 C5 2.66 5 3.32 5 4 C5.66 4 6.32 4 7 4 C8.70982173 10.06083148 9.06220676 16.41731831 6.4375 22.25 C3.47119444 27.42793268 -0.60688258 30.90315452 -6 33.375 C-9.45609917 34.09502066 -12.47907254 34.26573037 -16 34 C-16.99 33.34 -17.98 32.68 -19 32 C-17.56496445 31.63597631 -16.12683494 31.28413409 -14.6875 30.9375 C-13.48673828 30.64166016 -13.48673828 30.64166016 -12.26171875 30.33984375 C-10 30 -10 30 -7 31 C-7.33 29.68 -7.66 28.36 -8 27 C-7.01 26.67 -6.02 26.34 -5 26 C-4.67 25.67 -4.34 25.34 -4 25 C-4.99 24.67 -5.98 24.34 -7 24 C-7.33 24.66 -7.66 25.32 -8 26 C-8.99 25.34 -9.98 24.68 -11 24 C-10.071875 23.608125 -9.14375 23.21625 -8.1875 22.8125 C-4.57125051 20.75620127 -3.47852633 19.86059654 -2 16 C-1.4049881 9.82681178 -1.4049881 9.82681178 -3 4 C-2.67 3.34 -2.34 2.68 -2 2 C-1.34 2 -0.68 2 0 2 C0 1.34 0 0.68 0 0 Z " fill="#B99754" transform="translate(72,175)"/>
<path d="M0 0 C2.60078014 0.03859605 5.15696799 0.1458703 7.75 0.3125 C8.46671875 0.34794922 9.1834375 0.38339844 9.921875 0.41992188 C13.94671562 0.66777511 17.44858103 1.01418748 21 3 C22.36664256 7.09992768 21.10676552 8.94919365 19.5625 12.9375 C17.99578011 16.99731094 17 19.62412787 17 24 C16.7215625 24.9590625 16.7215625 24.9590625 16.4375 25.9375 C15.88794735 28.52824823 16.36372878 30.4549151 17 33 C15.35 33.99 13.7 34.98 12 36 C11.67 34.35 11.34 32.7 11 31 C-8.14 31 -27.28 31 -47 31 C-47 30.67 -47 30.34 -47 30 C-27.53 29.67 -8.06 29.34 12 29 C12 28.01 12 27.02 12 26 C11.01 26.495 11.01 26.495 10 27 C10 26.34 10 25.68 10 25 C7.03 25.33 4.06 25.66 1 26 C1.66 25.67 2.32 25.34 3 25 C2.505 23.515 2.505 23.515 2 22 C1.34 21.67 0.68 21.34 0 21 C-0.19592461 17.68794116 -0.38032746 14.37534146 -0.5625 11.0625 C-0.64661133 9.64420898 -0.64661133 9.64420898 -0.73242188 8.19726562 C-0.78076172 7.29814453 -0.82910156 6.39902344 -0.87890625 5.47265625 C-0.9260376 4.64000244 -0.97316895 3.80734863 -1.02172852 2.94946289 C-1 1 -1 1 0 0 Z M1 3 C1 8.61 1 14.22 1 20 C3.36613456 21.18306728 4.86780736 21.13354608 7.5 21.125 C8.2940625 21.12757813 9.088125 21.13015625 9.90625 21.1328125 C12.05918534 21.13277996 12.05918534 21.13277996 14 20 C14.96525568 17.71263654 15.82064586 15.46791525 16.625 13.125 C16.85445312 12.48691406 17.08390625 11.84882813 17.3203125 11.19140625 C18.32486598 8.32723295 19 6.05749257 19 3 C13.06 3 7.12 3 1 3 Z " fill="#E0CF88" transform="translate(150,124)"/>
<path d="M0 0 C2 2 2 2 2 4 C2.66 4.33 3.32 4.66 4 5 C4 4.34 4 3.68 4 3 C4.99 3 5.98 3 7 3 C7.33 2.01 7.66 1.02 8 0 C8.99 0 9.98 0 11 0 C10.67 0.99 10.34 1.98 10 3 C9.91893314 4.55421729 9.89243102 6.11167027 9.90234375 7.66796875 C9.90556641 8.56064453 9.90878906 9.45332031 9.91210938 10.37304688 C9.92048828 11.30181641 9.92886719 12.23058594 9.9375 13.1875 C9.94201172 14.12787109 9.94652344 15.06824219 9.95117188 16.03710938 C9.96295374 18.35813712 9.97940442 20.67903644 10 23 C7.69 23.33 5.38 23.66 3 24 C2 22 2 22 2 18 C1.34 18.33 0.68 18.66 0 19 C-0.04898438 17.94039062 -0.09796875 16.88078125 -0.1484375 15.7890625 C-0.22346709 14.40101503 -0.29901485 13.01299549 -0.375 11.625 C-0.4059375 10.92632812 -0.436875 10.22765625 -0.46875 9.5078125 C-0.59499498 5.29814173 -0.59499498 5.29814173 -3 2 C-2.01 1.34 -1.02 0.68 0 0 Z " fill="#BC9C58" transform="translate(74,95)"/>
<path d="M0 0 C0.66 0.33 1.32 0.66 2 1 C1.855625 2.27875 1.71125 3.5575 1.5625 4.875 C1.00185355 9.91280884 0.49498469 14.95536879 0 20 C0.66 20 1.32 20 2 20 C2 21.32 2 22.64 2 24 C1.34 24 0.68 24 0 24 C0 24.66 0 25.32 0 26 C-0.66 26 -1.32 26 -2 26 C-2.33 25.34 -2.66 24.68 -3 24 C-5.58605332 23.5316735 -5.58605332 23.5316735 -8.5625 23.375 C-9.57441406 23.30023438 -10.58632812 23.22546875 -11.62890625 23.1484375 C-12.80259766 23.07496094 -12.80259766 23.07496094 -14 23 C-14.33 24.32 -14.66 25.64 -15 27 C-15.99 27 -16.98 27 -18 27 C-18 26.34 -18 25.68 -18 25 C-18.66 24.67 -19.32 24.34 -20 24 C-20.22201613 21.0837882 -20.42808498 18.16792256 -20.625 15.25 C-20.72167969 14.0125 -20.72167969 14.0125 -20.8203125 12.75 C-20.871875 11.95078125 -20.9234375 11.1515625 -20.9765625 10.328125 C-21.02893066 9.5949707 -21.08129883 8.86181641 -21.13525391 8.10644531 C-20.97767085 5.65224559 -20.22264839 4.11146787 -19 2 C-17.71222656 1.93941406 -16.42445312 1.87882812 -15.09765625 1.81640625 C-13.41925841 1.73201753 -11.74087364 1.6473687 -10.0625 1.5625 C-8.78729492 1.50352539 -8.78729492 1.50352539 -7.48632812 1.44335938 C-6.67744141 1.40146484 -5.86855469 1.35957031 -5.03515625 1.31640625 C-3.91185913 1.26141968 -3.91185913 1.26141968 -2.76586914 1.20532227 C-0.97538674 1.18228937 -0.97538674 1.18228937 0 0 Z M-17 4 C-18.18681726 7.56045177 -18.09689832 10.43808337 -18.0625 14.1875 C-18.041875 16.435625 -18.02125 18.68375 -18 21 C-12.39 21 -6.78 21 -1 21 C-1 15.39 -1 9.78 -1 4 C-6.28 4 -11.56 4 -17 4 Z M-17 23 C-16 25 -16 25 -16 25 Z " fill="#EBE2AE" transform="translate(140,123)"/>
<path d="M0 0 C1.71703125 -0.01160156 1.71703125 -0.01160156 3.46875 -0.0234375 C6.5 0.375 6.5 0.375 8.38671875 1.6875 C10.25609287 4.52107762 9.78384309 7.08242016 9.5 10.375 C8.5 13.3125 8.5 13.3125 7.5 15.375 C5.19 15.705 2.88 16.035 0.5 16.375 C0.5 15.385 0.5 14.395 0.5 13.375 C1.16 13.375 1.82 13.375 2.5 13.375 C3.27802187 11.0734589 3.27802187 11.0734589 3.5 8.375 C2.16846734 6.06995956 2.16846734 6.06995956 0.5 4.375 C-3.46 6.355 -3.46 6.355 -7.5 8.375 C-7.17 11.345 -6.84 14.315 -6.5 17.375 C-9.02680715 12.32138569 -9.90316588 9.01932226 -9.5 3.375 C-7.06693439 -0.34313548 -4.1850606 -0.02827744 0 0 Z " fill="#E2D084" transform="translate(110.5,30.625)"/>
<path d="M0 0 C22.11 0 44.22 0 67 0 C67.99 2.475 67.99 2.475 69 5 C67.625 7.5 67.625 7.5 66 10 C65.74803871 12.70953551 65.74803871 12.70953551 66 15 C67.32 15.33 68.64 15.66 70 16 C70 16.66 70 17.32 70 18 C70.47263259 19.71610641 70.97652696 21.42371262 71.5 23.125 C71.7784375 24.03507812 72.056875 24.94515625 72.34375 25.8828125 C72.5603125 26.58148438 72.776875 27.28015625 73 28 C68.42120443 25.90218362 66.09708013 23.08445225 63.75 18.625 C61.99463123 12.4812093 63.241896 8.153364 65 2 C43.55 2 22.1 2 0 2 C0 1.34 0 0.68 0 0 Z " fill="#F3EED1" transform="translate(77,177)"/>
<path d="M0 0 C0.66 0 1.32 0 2 0 C1.49396008 2.16874252 1.00016187 3.99967627 0 6 C1.32 5.34 2.64 4.68 4 4 C4 8.29 4 12.58 4 17 C3.34 17 2.68 17 2 17 C2 17.66 2 18.32 2 19 C1.34 19.33 0.68 19.66 0 20 C0 21.32 0 22.64 0 24 C-6.625 27.125 -6.625 27.125 -10 26 C-9.34 24.68 -8.68 23.36 -8 22 C-7.34 22 -6.68 22 -6 22 C-5.8453125 21.13375 -5.8453125 21.13375 -5.6875 20.25 C-5 18 -5 18 -3.4375 16.3125 C-1.49378725 13.18565775 -1.89059198 10.7984243 -2.02734375 7.1953125 C-1.99326828 4.45953887 -1.24800332 2.41800643 0 0 Z " fill="#CCB26B" transform="translate(174,178)"/>
<path d="M0 0 C1.35439668 2.70879335 1.06501451 5.00933268 1 8 C0.34 7.01 -0.32 6.02 -1 5 C-3.843842 1.37917718 -3.843842 1.37917718 -7.9296875 -0.49609375 C-11.77856225 -0.73574067 -13.67983259 -0.20010463 -17 1.875 C-19.80164365 6.25256821 -20.05005402 9.93550871 -19 15 C-17.56864873 17.50239688 -16.11962973 18.98635176 -14 21 C-15.423125 20.938125 -15.423125 20.938125 -16.875 20.875 C-20.10244856 20.65026182 -20.10244856 20.65026182 -22 23 C-22.12375 22.030625 -22.2475 21.06125 -22.375 20.0625 C-22.684375 18.5465625 -22.684375 18.5465625 -23 17 C-23.66 16.67 -24.32 16.34 -25 16 C-24.690625 15.34 -24.38125 14.68 -24.0625 14 C-23.13747279 11.38815846 -22.86107319 9.6954895 -22.6875 7 C-22.32864564 3.61010791 -21.94899251 2.9352067 -19.6875 0.0625 C-13.81146573 -4.44701467 -5.89098779 -4.64138432 0 0 Z " fill="#EAE1AE" transform="translate(170,178)"/>
<path d="M0 0 C1.66095703 0.06574219 1.66095703 0.06574219 3.35546875 0.1328125 C5.07443359 0.21015625 5.07443359 0.21015625 6.828125 0.2890625 C7.98957031 0.33289063 9.15101563 0.37671875 10.34765625 0.421875 C18.94805975 0.78399725 18.94805975 0.78399725 20.078125 1.9140625 C20.43709936 8.37560096 20.43709936 8.37560096 18.078125 11.9140625 C17.748125 13.1103125 17.418125 14.3065625 17.078125 15.5390625 C16.748125 16.6528125 16.418125 17.7665625 16.078125 18.9140625 C13.53536951 20.18544024 11.73004299 20.0434875 8.88671875 20.046875 C7.85998047 20.04816406 6.83324219 20.04945312 5.77539062 20.05078125 C4.69966797 20.04691406 3.62394531 20.04304688 2.515625 20.0390625 C1.43603516 20.04292969 0.35644531 20.04679687 -0.75585938 20.05078125 C-2.2940332 20.04884766 -2.2940332 20.04884766 -3.86328125 20.046875 C-4.80888916 20.04574707 -5.75449707 20.04461914 -6.72875977 20.04345703 C-8.921875 19.9140625 -8.921875 19.9140625 -9.921875 18.9140625 C-10.07769803 17.57391029 -10.17231642 16.22647347 -10.23828125 14.87890625 C-10.28017578 14.07001953 -10.32207031 13.26113281 -10.36523438 12.42773438 C-10.40455078 11.57759766 -10.44386719 10.72746094 -10.484375 9.8515625 C-10.52755859 8.99755859 -10.57074219 8.14355469 -10.61523438 7.26367188 C-10.72164202 5.14734213 -10.82229231 3.03072437 -10.921875 0.9140625 C-7.17610746 0.02527997 -3.84174104 -0.15432843 0 0 Z M-8.921875 2.9140625 C-8.99507663 5.446839 -9.01415069 7.94510168 -8.984375 10.4765625 C-8.96375 12.9309375 -8.943125 15.3853125 -8.921875 17.9140625 C-1.331875 17.9140625 6.258125 17.9140625 14.078125 17.9140625 C14.903125 15.8309375 15.728125 13.7478125 16.578125 11.6015625 C17.0421875 10.42980469 17.50625 9.25804688 17.984375 8.05078125 C19.24275013 4.99559802 19.24275013 4.99559802 19.078125 1.9140625 C14.59897172 1.88519912 10.11984209 1.86731063 5.640625 1.8515625 C4.36123047 1.84318359 3.08183594 1.83480469 1.76367188 1.82617188 C0.54873047 1.82294922 -0.66621094 1.81972656 -1.91796875 1.81640625 C-3.04388428 1.81116943 -4.1697998 1.80593262 -5.32983398 1.80053711 C-7.85158371 1.61860802 -7.85158371 1.61860802 -8.921875 2.9140625 Z " fill="#E1D3A1" transform="translate(159.921875,97.0859375)"/>
<path d="M0 0 C0.33 0.66 0.66 1.32 1 2 C1.66 2 2.32 2 3 2 C3.33 3.98 3.66 5.96 4 8 C3.01 8.33 2.02 8.66 1 9 C0.67 10.65 0.34 12.3 0 14 C1.32 14.66 2.64 15.32 4 16 C3.67 16.66 3.34 17.32 3 18 C3.66 18.33 4.32 18.66 5 19 C-0.40701652 23.81769592 -4.66176804 26.19531416 -12 26 C-15.0625 25.5625 -15.0625 25.5625 -17 25 C-17 24.67 -17 24.34 -17 24 C-15.56496445 23.63597631 -14.12683494 23.28413409 -12.6875 22.9375 C-11.48673828 22.64166016 -11.48673828 22.64166016 -10.26171875 22.33984375 C-8 22 -8 22 -5 23 C-5.33 21.68 -5.66 20.36 -6 19 C-5.01 18.67 -4.02 18.34 -3 18 C-2.67 17.67 -2.34 17.34 -2 17 C-2.99 16.67 -3.98 16.34 -5 16 C-5.33 16.66 -5.66 17.32 -6 18 C-6.99 17.34 -7.98 16.68 -9 16 C-8.071875 15.608125 -7.14375 15.21625 -6.1875 14.8125 C-2.63008361 12.78965539 -1.50705199 11.76762999 0 8 C0.2276512 5.27830346 0.13936164 2.74077897 0 0 Z " fill="#C2A87B" transform="translate(70,183)"/>
<path d="M0 0 C4.95 0.33 9.9 0.66 15 1 C12.78065836 4.32901247 11.65316671 4.75023244 8 6 C11.3 6.66 14.6 7.32 18 8 C18.33 7.01 18.66 6.02 19 5 C20.98 4.67 22.96 4.34 25 4 C21.5017213 7.74815575 19.08379802 9.773729 13.90625 10.3359375 C12.22015625 10.35527344 12.22015625 10.35527344 10.5 10.375 C9.3759375 10.40335938 8.251875 10.43171875 7.09375 10.4609375 C3.36713695 9.9057098 2.26032787 8.95335292 0 6 C-1 3 -1 3 0 0 Z " fill="#E4D79E" transform="translate(149,198)"/>
<path d="M0 0 C1.77206192 0.00015919 3.54412846 0.00585754 5.31616211 0.01586914 C6.24698105 0.01728409 7.17779999 0.01869904 8.13682556 0.02015686 C11.12241777 0.02577367 14.10793615 0.03832899 17.09350586 0.05102539 C19.11238499 0.05603823 21.13126529 0.06060151 23.15014648 0.06469727 C28.11046158 0.07574856 33.07072118 0.09302444 38.03100586 0.11352539 C38.52600586 1.10352539 38.52600586 1.10352539 39.03100586 2.11352539 C26.49100586 2.11352539 13.95100586 2.11352539 1.03100586 2.11352539 C2.02100586 3.59852539 2.02100586 3.59852539 3.03100586 5.11352539 C3.15600586 8.30102539 3.15600586 8.30102539 3.03100586 11.11352539 C1.03100586 12.11352539 1.03100586 12.11352539 -1.53149414 11.30102539 C-3.96899414 10.11352539 -3.96899414 10.11352539 -4.96899414 8.11352539 C-5.09399414 4.55102539 -5.09399414 4.55102539 -4.96899414 1.11352539 C-3.96899414 0.11352539 -3.96899414 0.11352539 0 0 Z " fill="#B18D53" transform="translate(43.968994140625,164.886474609375)"/>
<path d="M0 0 C0.66 0.66 1.32 1.32 2 2 C1.72061231 4.3747954 1.11181467 6.59225479 0.48046875 8.89453125 C-0.62313094 13.04692435 -1.21712381 16.65752386 -1 21 C-1.99 21.33 -2.98 21.66 -4 22 C-5.125 17.25 -5.125 17.25 -4 15 C-4.99 15 -5.98 15 -7 15 C-7 11.7 -7 8.4 -7 5 C-5.35 4.34 -3.7 3.68 -2 3 C-2 2.34 -2 1.68 -2 1 C-1.34 0.67 -0.68 0.34 0 0 Z " fill="#9A6D32" transform="translate(49,176)"/>
<path d="M0 0 C0.66 0.99 1.32 1.98 2 3 C1.01 4.485 1.01 4.485 0 6 C-0.39958487 9.42017557 -0.5635348 12.87293041 1 16 C0.34 16.99 -0.32 17.98 -1 19 C-3.7183944 19.44074077 -6.20453901 19.69472068 -8.9375 19.8125 C-9.66646484 19.86341797 -10.39542969 19.91433594 -11.14648438 19.96679688 C-15.0303908 20.17683398 -16.68247657 20.21168229 -20 18 C-20.24849576 15.22808898 -20.32683409 12.70112612 -20.25 9.9375 C-20.24484375 9.19177734 -20.2396875 8.44605469 -20.234375 7.67773438 C-20.15410426 2.15410426 -20.15410426 2.15410426 -19 1 C-15.8714163 0.56662485 -12.71413519 0.43740688 -9.5625 0.25 C-8.23508789 0.14751953 -8.23508789 0.14751953 -6.88085938 0.04296875 C-5.61145508 -0.03244141 -5.61145508 -0.03244141 -4.31640625 -0.109375 C-3.53724854 -0.16061523 -2.75809082 -0.21185547 -1.95532227 -0.26464844 C-1.31006592 -0.17731445 -0.66480957 -0.08998047 0 0 Z M-19 2 C-19 6.95 -19 11.9 -19 17 C-13.39 17 -7.78 17 -2 17 C-2 12.05 -2 7.1 -2 2 C-7.61 2 -13.22 2 -19 2 Z " fill="#F0EAB6" transform="translate(141,98)"/>
<path d="M0 0 C0.33 0.66 0.66 1.32 1 2 C1.66 2.33 2.32 2.66 3 3 C2.814375 3.9075 2.62875 4.815 2.4375 5.75 C1.81126383 8.83473449 1.81126383 8.83473449 2.5625 11.125 C3.15557267 13.66674001 2.31909732 14.82736912 1 17 C1.94875 16.67 2.8975 16.34 3.875 16 C7 15 7 15 9 15 C8.67 16.98 8.34 18.96 8 21 C7.01 21.33 6.02 21.66 5 22 C4.34 21.67 3.68 21.34 3 21 C3 20.34 3 19.68 3 19 C2.195625 19.020625 1.39125 19.04125 0.5625 19.0625 C-2 19 -2 19 -3 18 C-2.28 11.28 -2.28 11.28 -1 10 C-0.76712992 8.31816052 -0.58735834 6.6287584 -0.4375 4.9375 C-0.31181641 3.55884766 -0.31181641 3.55884766 -0.18359375 2.15234375 C-0.12300781 1.44207031 -0.06242188 0.73179688 0 0 Z " fill="#C5A963" transform="translate(180,96)"/>
<path d="M0 0 C0.33 0 0.66 0 1 0 C1.82622671 5.60563042 2.06795656 10.42289352 1 16 C1.66 16 2.32 16 3 16 C3 17.32 3 18.64 3 20 C2.34 20 1.68 20 1 20 C1 20.66 1 21.32 1 22 C0.34 22 -0.32 22 -1 22 C-1.33 21.34 -1.66 20.68 -2 20 C-4.58605332 19.5316735 -4.58605332 19.5316735 -7.5625 19.375 C-8.57441406 19.30023438 -9.58632812 19.22546875 -10.62890625 19.1484375 C-11.80259766 19.07496094 -11.80259766 19.07496094 -13 19 C-13.33 20.32 -13.66 21.64 -14 23 C-14.99 23 -15.98 23 -17 23 C-16.34 21.68 -15.68 20.36 -15 19 C-15.66 19 -16.32 19 -17 19 C-17 18.34 -17 17.68 -17 17 C-11.39 17 -5.78 17 0 17 C0 11.39 0 5.78 0 0 Z " fill="#F2EAB8" transform="translate(139,127)"/>
<path d="M0 0 C0.33 0.66 0.66 1.32 1 2 C3.52733235 2.65555119 3.52733235 2.65555119 6 3 C5 6 5 6 3.93359375 7.69140625 C2.33864906 11.63539082 2.96274701 15.88409408 3.16601562 20.06835938 C3.28892707 24.59065275 2.88778426 27.44419818 0 31 C-0.66 31 -1.32 31 -2 31 C-1.84152588 30.46987305 -1.68305176 29.93974609 -1.51977539 29.39355469 C-0.88524553 26.47155808 -0.78228868 23.69217153 -0.68359375 20.703125 C-0.64169922 19.49785156 -0.59980469 18.29257813 -0.55664062 17.05078125 C-0.51732422 15.79652344 -0.47800781 14.54226562 -0.4375 13.25 C-0.39431641 11.98027344 -0.35113281 10.71054687 -0.30664062 9.40234375 C-0.20060278 6.26833635 -0.09853942 3.13425067 0 0 Z " fill="#DFD1A1" transform="translate(104,48)"/>
<path d="M0 0 C0.33 0.99 0.66 1.98 1 3 C1.99 2.34 2.98 1.68 4 1 C6.5 0.875 6.5 0.875 9 1 C9.99 1 10.98 1 12 1 C11.62207203 3.67456717 11.20233084 4.80611814 9.22265625 6.703125 C8.50980469 7.21359375 7.79695313 7.7240625 7.0625 8.25 C6.35222656 8.77078125 5.64195313 9.2915625 4.91015625 9.828125 C3 11 3 11 1 11 C-0.20272819 8.59454362 -0.10071472 7.05003047 -0.0625 4.375 C-0.05347656 3.55773437 -0.04445312 2.74046875 -0.03515625 1.8984375 C-0.02355469 1.27195312 -0.01195312 0.64546875 0 0 Z " fill="#9C7037" transform="translate(41,126)"/>
<path d="M0 0 C2.0625 0.4375 2.0625 0.4375 4 1 C3.67 1.99 3.34 2.98 3 4 C2.01 4 1.02 4 0 4 C0 4.99 0 5.98 0 7 C-5.94 7.495 -5.94 7.495 -12 8 C-12 7.34 -12 6.68 -12 6 C-12.66 5.67 -13.32 5.34 -14 5 C-13.67 4.34 -13.34 3.68 -13 3 C-10.67843403 2.59270772 -8.3431213 2.25561323 -6 2 C-6 1.67 -6 1.34 -6 1 C-4.7934375 1.0309375 -4.7934375 1.0309375 -3.5625 1.0625 C-1.06645115 1.29633621 -1.06645115 1.29633621 0 0 Z " fill="#A98243" transform="translate(65,199)"/>
<path d="M0 0 C0.33 0 0.66 0 1 0 C1 3.96 1 7.92 1 12 C0.34 12 -0.32 12 -1 12 C-1.144375 12.61875 -1.28875 13.2375 -1.4375 13.875 C-2 16 -2 16 -3 18 C-3.66 18 -4.32 18 -5 18 C-4.67 19.65 -4.34 21.3 -4 23 C-4.99 23.33 -5.98 23.66 -7 24 C-7.33 24.99 -7.66 25.98 -8 27 C-9 25 -9 25 -8.28735352 22.47802734 C-7.90506592 21.4411377 -7.52277832 20.40424805 -7.12890625 19.3359375 C-6.71962891 18.21445312 -6.31035156 17.09296875 -5.88867188 15.9375 C-5.45103516 14.761875 -5.01339844 13.58625 -4.5625 12.375 C-4.12873047 11.19164062 -3.69496094 10.00828125 -3.24804688 8.7890625 C-2.17210276 5.85681919 -1.08915366 2.92735704 0 0 Z " fill="#C6AD80" transform="translate(202,35)"/>
<path d="M0 0 C0.33 0 0.66 0 1 0 C1.33 6.93 1.66 13.86 2 21 C-0.31 21 -2.62 21 -5 21 C-5.75 18.75 -5.75 18.75 -6 16 C-5.05640625 15.11828125 -5.05640625 15.11828125 -4.09375 14.21875 C-1.45376501 11.42115397 -1.24225505 9.52395539 -0.75 5.75 C-0.60046875 4.67234375 -0.4509375 3.5946875 -0.296875 2.484375 C-0.19890625 1.66453125 -0.1009375 0.8446875 0 0 Z " fill="#DECB7F" transform="translate(115,58)"/>
<path d="M0 0 C1.76923828 0.04060547 1.76923828 0.04060547 3.57421875 0.08203125 C4.47785156 0.11683594 5.38148437 0.15164062 6.3125 0.1875 C6.3125 0.5175 6.3125 0.8475 6.3125 1.1875 C4.3325 1.5175 2.3525 1.8475 0.3125 2.1875 C0.3125 2.8475 0.3125 3.5075 0.3125 4.1875 C-3.6475 6.1675 -3.6475 6.1675 -7.6875 8.1875 C-7.3575 11.1575 -7.0275 14.1275 -6.6875 17.1875 C-9.21430715 12.13388569 -10.09066588 8.83182226 -9.6875 3.1875 C-7.23008088 -0.63418028 -4.23885749 -0.12590666 0 0 Z " fill="#E1D4A3" transform="translate(110.6875,30.8125)"/>
<path d="M0 0 C0.99 0.33 1.98 0.66 3 1 C4.89959022 6.02113905 4.94777323 12.42569893 3.10546875 17.4296875 C2.14936771 19.32837578 1.0837524 21.17116782 0 23 C-0.33 23 -0.66 23 -1 23 C-1.125 16.375 -1.125 16.375 0 13 C0.06937062 10.77181559 0.08457084 8.54165476 0.0625 6.3125 C0.05347656 5.13300781 0.04445313 3.95351562 0.03515625 2.73828125 C0.02355469 1.83464844 0.01195313 0.93101562 0 0 Z " fill="#D0BF9A" transform="translate(76,178)"/>
<path d="M0 0 C0.33 0 0.66 0 1 0 C1.01458252 0.81154541 1.02916504 1.62309082 1.04418945 2.45922852 C1.11897632 6.16078193 1.21553761 9.86146379 1.3125 13.5625 C1.33505859 14.83931641 1.35761719 16.11613281 1.38085938 17.43164062 C1.57042024 24.06627099 1.92178849 29.10555242 5 35 C5.1875 38.4375 5.1875 38.4375 5 41 C4.01 41 3.02 41 2 41 C-0.0827853 32.08065395 -0.24069342 23.43372527 -0.125 14.3125 C-0.11494059 12.9173242 -0.10582002 11.5221413 -0.09765625 10.12695312 C-0.07429406 6.7511163 -0.04153668 3.37565382 0 0 Z " fill="#F0EBCC" transform="translate(116,46)"/>
<path d="M0 0 C2.6425382 0.03842617 5.24024435 0.14525029 7.875 0.3125 C8.60847656 0.34794922 9.34195313 0.38339844 10.09765625 0.41992188 C13.8401109 0.64828659 15.82122987 0.88081991 19 3 C13.06 3 7.12 3 1 3 C1 8.61 1 14.22 1 20 C1.66 20.33 2.32 20.66 3 21 C2.01 21 1.02 21 0 21 C-0.19592461 17.68794116 -0.38032746 14.37534146 -0.5625 11.0625 C-0.61857422 10.11697266 -0.67464844 9.17144531 -0.73242188 8.19726562 C-0.78076172 7.29814453 -0.82910156 6.39902344 -0.87890625 5.47265625 C-0.9260376 4.64000244 -0.97316895 3.80734863 -1.02172852 2.94946289 C-1 1 -1 1 0 0 Z " fill="#EEE5BE" transform="translate(150,124)"/>
<path d="M0 0 C0.75 1.625 0.75 1.625 1 4 C-0.875 7.125 -0.875 7.125 -3 10 C-3.33 10.66 -3.66 11.32 -4 12 C-4.33 12.33 -4.66 12.66 -5 13 C-4.34 13.66 -3.68 14.32 -3 15 C-6.63 14.67 -10.26 14.34 -14 14 C-12 11 -12 11 -9.75 10.1875 C-6.04466725 8.58746995 -3.51906179 6.13288381 -1 3 C-0.67 2.01 -0.34 1.02 0 0 Z " fill="#DDCC8C" transform="translate(170,191)"/>
<path d="M0 0 C1.66772461 0.07250977 1.66772461 0.07250977 3.36914062 0.14648438 C4.51962891 0.20255859 5.67011719 0.25863281 6.85546875 0.31640625 C8.61020508 0.3947168 8.61020508 0.3947168 10.40039062 0.47460938 C13.28154149 0.60396717 16.1623179 0.7389209 19.04296875 0.87890625 C19.04296875 1.20890625 19.04296875 1.53890625 19.04296875 1.87890625 C5.67796875 2.37390625 5.67796875 2.37390625 -7.95703125 2.87890625 C-8.28703125 7.82890625 -8.61703125 12.77890625 -8.95703125 17.87890625 C-9.28703125 17.87890625 -9.61703125 17.87890625 -9.95703125 17.87890625 C-10.28703125 12.26890625 -10.61703125 6.65890625 -10.95703125 0.87890625 C-6.87307273 0.06211455 -4.06048556 -0.18740703 0 0 Z " fill="#E5DAAE" transform="translate(159.95703125,97.12109375)"/>
<path d="M0 0 C0.33 0 0.66 0 1 0 C1.33266291 6.20970773 0.45029331 10.28264895 -2 16 C-2.66 16 -3.32 16 -4 16 C-4.33 18.64 -4.66 21.28 -5 24 C-5.99 24.33 -6.98 24.66 -8 25 C-5.85406445 16.45115106 -3.0505873 8.25949525 0 0 Z " fill="#DBCDAB" transform="translate(192,62)"/>
<path d="M0 0 C0.33 0 0.66 0 1 0 C1.04898438 1.26457031 1.09796875 2.52914062 1.1484375 3.83203125 C1.2234738 5.49220947 1.29902127 7.15236464 1.375 8.8125 C1.4059375 9.64587891 1.436875 10.47925781 1.46875 11.33789062 C1.50742188 12.14033203 1.54609375 12.94277344 1.5859375 13.76953125 C1.6173584 14.50792236 1.6487793 15.24631348 1.68115234 16.00708008 C1.90834614 18.31349588 1.90834614 18.31349588 4 21 C3.34 21.33 2.68 21.66 2 22 C1.67 21.34 1.34 20.68 1 20 C0.54625 20.825 0.0925 21.65 -0.375 22.5 C-1.179375 23.7375 -1.179375 23.7375 -2 25 C-2.66 25 -3.32 25 -4 25 C-3.979375 24.21625 -3.95875 23.4325 -3.9375 22.625 C-3.81315937 20.01885039 -3.81315937 20.01885039 -5 18 C-4.01 17.67 -3.02 17.34 -2 17 C-1.34 17.33 -0.68 17.66 0 18 C0 12.06 0 6.12 0 0 Z " fill="#C5A866" transform="translate(83,127)"/>
<path d="M0 0 C2.31 0.33 4.62 0.66 7 1 C6.125 8.75 6.125 8.75 5 11 C4.34 11 3.68 11 3 11 C3 9.02 3 7.04 3 5 C1.35 5.33 -0.3 5.66 -2 6 C-1.34 4.02 -0.68 2.04 0 0 Z " fill="#C8AE68" transform="translate(175,127)"/>
<path d="M0 0 C3.96 0 7.92 0 12 0 C12 0.33 12 0.66 12 1 C10.88625 1.12375 9.7725 1.2475 8.625 1.375 C4.96896323 1.6465813 4.96896323 1.6465813 3 4 C3 4.99 3 5.98 3 7 C3 9.66666667 3 12.33333333 3 15 C2.01 15.495 2.01 15.495 1 16 C0.07962623 10.59280411 -0.08441199 5.48677955 0 0 Z " fill="#986B33" transform="translate(35,88)"/>
<path d="M0 0 C2 1 2 1 2.8125 2.75 C3 5 3 5 1.625 7.1875 C-0.58966939 11.02058164 -0.72467211 14.64222401 -1 19 C-3.52826571 15.20760144 -3.36444901 13.51916778 -3 9 C-2.157415 5.9364973 -1.13074848 2.96821475 0 0 Z " fill="#EFEAB6" transform="translate(143,177)"/>
<path d="M0 0 C0.66 0 1.32 0 2 0 C3.3274855 3.98245651 1.99907829 6.44789543 0.5625 10.1875 C0.31951172 10.84169922 0.07652344 11.49589844 -0.17382812 12.16992188 C-0.7743293 13.78303286 -1.38609203 15.3919435 -2 17 C-2.99 17 -3.98 17 -5 17 C-4.31063929 13.08878502 -3.21749819 9.44491404 -1.9375 5.6875 C-1.57527344 4.61886719 -1.21304688 3.55023438 -0.83984375 2.44921875 C-0.56269531 1.64097656 -0.28554687 0.83273438 0 0 Z " fill="#DFD2A3" transform="translate(169,127)"/>
<path d="M0 0 C1.125 5.625 1.125 5.625 0 9 C-2.4375 8.375 -2.4375 8.375 -5 7 C-5.8125 3.875 -5.8125 3.875 -6 1 C-3 0 -3 0 0 0 Z " fill="#9A6C34" transform="translate(46,168)"/>
<path d="M0 0 C0.66 0.99 1.32 1.98 2 3 C1.01 4.485 1.01 4.485 0 6 C-0.45772063 8.73872955 -0.45772063 8.73872955 -0.625 11.6875 C-0.69976562 12.68136719 -0.77453125 13.67523438 -0.8515625 14.69921875 C-0.90054688 15.45847656 -0.94953125 16.21773437 -1 17 C-1.33 17 -1.66 17 -2 17 C-2 12.05 -2 7.1 -2 2 C-7.61 2 -13.22 2 -19 2 C-19 1.67 -19 1.34 -19 1 C-15.8765076 0.74572082 -12.75153179 0.52587681 -9.625 0.3125 C-8.29082031 0.20325195 -8.29082031 0.20325195 -6.9296875 0.09179688 C-6.07890625 0.03701172 -5.228125 -0.01777344 -4.3515625 -0.07421875 C-3.56604004 -0.13182373 -2.78051758 -0.18942871 -1.97119141 -0.2487793 C-0.99545166 -0.12563354 -0.99545166 -0.12563354 0 0 Z " fill="#F6F3D6" transform="translate(141,98)"/>
<path d="M0 0 C0.66 0.66 1.32 1.32 2 2 C1.6730244 4.61580479 1.17960932 6.64078137 0 9 C-0.598125 8.67 -1.19625 8.34 -1.8125 8 C-4.05386471 6.79212012 -4.05386471 6.79212012 -7 7 C-6.67 6.01 -6.34 5.02 -6 4 C-3.9375 3.3125 -3.9375 3.3125 -2 3 C-2 2.34 -2 1.68 -2 1 C-1.34 0.67 -0.68 0.34 0 0 Z " fill="#9E733B" transform="translate(49,176)"/>
<path d="M0 0 C2.22189824 2.22189824 2.92598892 4.08482708 4 7 C-2.625 10.125 -2.625 10.125 -6 9 C-5.34 7.68 -4.68 6.36 -4 5 C-3.34 5 -2.68 5 -2 5 C-1.855625 4.360625 -1.71125 3.72125 -1.5625 3.0625 C-1 1 -1 1 0 0 Z " fill="#D2BB75" transform="translate(170,195)"/>
<path d="M0 0 C1 3 1 3 0 6 C-0.22451458 8.22574335 -0.40782878 10.45581519 -0.5625 12.6875 C-0.64628906 13.86699219 -0.73007813 15.04648438 -0.81640625 16.26171875 C-0.87699219 17.16535156 -0.93757812 18.06898438 -1 19 C-3 18 -3 18 -4 15 C-4.66 15.66 -5.32 16.32 -6 17 C-6.35584349 12.72987817 -5.55699032 11.31461709 -3 8 C-1.87403916 5.36768615 -0.94677608 2.70507453 0 0 Z " fill="#E8DEBA" transform="translate(174,154)"/>
<path d="M0 0 C0.33 0 0.66 0 1 0 C1 4.62 1 9.24 1 14 C-1.31 14.33 -3.62 14.66 -6 15 C-6.33 14.34 -6.66 13.68 -7 13 C-4 10 -4 10 -2.375 8.75 C-0.27758682 6.08056505 -0.31190569 3.30620026 0 0 Z " fill="#C19E5E" transform="translate(83,104)"/>
<path d="M0 0 C1.28284601 3.84853802 0.47918865 5.53095203 -0.96484375 9.19140625 C-2 11 -2 11 -4.6875 12.5 C-5.450625 12.665 -6.21375 12.83 -7 13 C-7.8125 11.3125 -7.8125 11.3125 -8 9 C-5.6875 6.25 -5.6875 6.25 -3 4 C-2.34 4 -1.68 4 -1 4 C-0.67 2.68 -0.34 1.36 0 0 Z " fill="#C8B281" transform="translate(199,84)"/>
<path d="M0 0 C2.48864152 3.73296229 2.52340369 6.67795438 2 11 C0.85901374 14.94656206 -0.74926172 18.36844997 -4 21 C-4.33 19.68 -4.66 18.36 -5 17 C-4.01 16.67 -3.02 16.34 -2 16 C-2 15.34 -2 14.68 -2 14 C-1.34 14 -0.68 14 0 14 C0 9.38 0 4.76 0 0 Z " fill="#E1D7B2" transform="translate(178,181)"/>
<path d="M0 0 C1.2065625 0.0309375 1.2065625 0.0309375 2.4375 0.0625 C2.7675 1.7125 3.0975 3.3625 3.4375 5.0625 C1.0625 6.125 1.0625 6.125 -1.5625 7.0625 C-2.2225 6.7325 -2.8825 6.4025 -3.5625 6.0625 C-3.605221 4.39638095 -3.60313832 2.72867115 -3.5625 1.0625 C-2.5625 0.0625 -2.5625 0.0625 0 0 Z " fill="#DFD0A1" transform="translate(160.5625,184.9375)"/>
<path d="M0 0 C0.99 0 1.98 0 3 0 C2.85950482 1.47968324 2.71245174 2.95874516 2.5625 4.4375 C2.48128906 5.26121094 2.40007812 6.08492187 2.31640625 6.93359375 C2 9 2 9 1 10 C-0.66617115 10.04063832 -2.33388095 10.042721 -4 10 C-4 9.01 -4 8.02 -4 7 C-3.34 7 -2.68 7 -2 7 C-1.34 4.69 -0.68 2.38 0 0 Z " fill="#E2D188" transform="translate(115,37)"/>
<path d="M0 0 C1.65 0.33 3.3 0.66 5 1 C5.33 1.99 5.66 2.98 6 4 C5.01 4.99 4.02 5.98 3 7 C1.68 6.34 0.36 5.68 -1 5 C-0.67 3.35 -0.34 1.7 0 0 Z " fill="#D4C696" transform="translate(58,185)"/>
<path d="M0 0 C2.475 0.495 2.475 0.495 5 1 C4.33333333 4.33333333 3.66666667 7.66666667 3 11 C1.5 10 1.5 10 0 8 C-0.27345479 5.28153765 -0.13491285 2.74322801 0 0 Z " fill="#9B7037" transform="translate(43,139)"/>
<path d="M0 0 C1.4540625 0.0309375 1.4540625 0.0309375 2.9375 0.0625 C3.2675 1.0525 3.5975 2.0425 3.9375 3.0625 C-3.3225 3.0625 -10.5825 3.0625 -18.0625 3.0625 C-18.0625 2.7325 -18.0625 2.4025 -18.0625 2.0625 C-17.06347656 2.00191406 -16.06445312 1.94132813 -15.03515625 1.87890625 C-13.74480469 1.79511719 -12.45445313 1.71132812 -11.125 1.625 C-9.83722656 1.54378906 -8.54945312 1.46257812 -7.22265625 1.37890625 C-3.69545663 1.02575029 -3.51377698 0.07170973 0 0 Z " fill="#C3A769" transform="translate(88.0625,151.9375)"/>
<path d="M0 0 C0.99 0.33 1.98 0.66 3 1 C2.67 2.32 2.34 3.64 2 5 C3.32 5.66 4.64 6.32 6 7 C6 7.66 6 8.32 6 9 C5.34 9 4.68 9 4 9 C4 9.66 4 10.32 4 11 C2.0625 10.25 2.0625 10.25 0 9 C-0.75 6.875 -0.75 6.875 -1 5 C-0.34 5 0.32 5 1 5 C0.67 3.35 0.34 1.7 0 0 Z " fill="#B69353" transform="translate(195,59)"/>
<path d="M0 0 C0.99 0 1.98 0 3 0 C2.66780444 2.98976005 2.10141377 4.84585108 0.4375 7.375 C-2.35160436 9.23440291 -3.04461863 9.1471269 -6.25 8.75 C-7.4875 8.5025 -8.725 8.255 -10 8 C-10 7.67 -10 7.34 -10 7 C-7.03 7 -4.06 7 -1 7 C-0.67 4.69 -0.34 2.38 0 0 Z " fill="#E2D7A2" transform="translate(159,158)"/>
<path d="M0 0 C0 0.66 0 1.32 0 2 C-1.98 2.33 -3.96 2.66 -6 3 C-5.67 3.66 -5.34 4.32 -5 5 C-8.28696233 5.79953138 -9.71023192 6.09658936 -13 5 C-12.34 5 -11.68 5 -11 5 C-11.33 3.68 -11.66 2.36 -12 1 C-10.37512529 0.83211627 -8.75009558 0.66573213 -7.125 0.5 C-6.22007812 0.4071875 -5.31515625 0.314375 -4.3828125 0.21875 C-2 0 -2 0 0 0 Z " fill="#E1D492" transform="translate(164,144)"/>
<path d="M0 0 C0 0.66 0 1.32 0 2 C-5.94 2 -11.88 2 -18 2 C-13.52899824 -0.23550088 -13.52899824 -0.23550088 -9.9375 -0.0625 C-5.97332787 0.00042337 -3.71154525 -1.23718175 0 0 Z " fill="#F0E7A3" transform="translate(140,97)"/>
<path d="M0 0 C1.32 0.33 2.64 0.66 4 1 C4 1.33 4 1.66 4 2 C8.29 2 12.58 2 17 2 C17 2.66 17 3.32 17 4 C10.73 4 4.46 4 -2 4 C-1.34 2.68 -0.68 1.36 0 0 Z " fill="#AC8856" transform="translate(50,95)"/>
<path d="M0 0 C1.32 0 2.64 0 4 0 C4 3.63 4 7.26 4 11 C2.35 11 0.7 11 -1 11 C-1 10.34 -1 9.68 -1 9 C-0.34 9 0.32 9 1 9 C1 7.68 1 6.36 1 5 C1.66 5 2.32 5 3 5 C2.34 4.01 1.68 3.02 1 2 C0.67 1.34 0.34 0.68 0 0 Z " fill="#976329" transform="translate(231,34)"/>
<path d="M0 0 C0.66 0.33 1.32 0.66 2 1 C1.34 2.32 0.68 3.64 0 5 C-0.33 4.67 -0.66 4.34 -1 4 C-2.34267413 3.91368126 -3.68974322 3.89293527 -5.03515625 3.90234375 C-5.84404297 3.90556641 -6.65292969 3.90878906 -7.48632812 3.91210938 C-8.7615332 3.92467773 -8.7615332 3.92467773 -10.0625 3.9375 C-10.91650391 3.94201172 -11.77050781 3.94652344 -12.65039062 3.95117188 C-14.76695663 3.96299627 -16.88348685 3.98093231 -19 4 C-19 3.34 -19 2.68 -19 2 C-17.71222656 1.93941406 -16.42445312 1.87882812 -15.09765625 1.81640625 C-13.41925841 1.73201753 -11.74087364 1.6473687 -10.0625 1.5625 C-8.78729492 1.50352539 -8.78729492 1.50352539 -7.48632812 1.44335938 C-6.67744141 1.40146484 -5.86855469 1.35957031 -5.03515625 1.31640625 C-3.91185913 1.26141968 -3.91185913 1.26141968 -2.76586914 1.20532227 C-0.97538674 1.18228937 -0.97538674 1.18228937 0 0 Z " fill="#F2E799" transform="translate(140,123)"/>
<path d="M0 0 C0.33 0 0.66 0 1 0 C1 2.31 1 4.62 1 7 C0.34 7 -0.32 7 -1 7 C-0.67 8.65 -0.34 10.3 0 12 C-0.99 12.33 -1.98 12.66 -3 13 C-3.33 13.99 -3.66 14.98 -4 16 C-5 14 -5 14 -4.00390625 10.7421875 C-3.53110016 9.4502948 -3.05028031 8.16131362 -2.5625 6.875 C-2.31951172 6.21628906 -2.07652344 5.55757812 -1.82617188 4.87890625 C-1.22421679 3.25008662 -0.61297588 1.62470425 0 0 Z " fill="#D6C6A8" transform="translate(198,46)"/>
<path d="M0 0 C0.33 0.66 0.66 1.32 1 2 C1.66 2 2.32 2 3 2 C3.33 3.98 3.66 5.96 4 8 C3.01 8.33 2.02 8.66 1 9 C0.855625 9.639375 0.71125 10.27875 0.5625 10.9375 C0 13 0 13 -2.0625 14.25 C-2.701875 14.4975 -3.34125 14.745 -4 15 C-3.34 14.01 -2.68 13.02 -2 12 C0.41068853 7.8492018 0.33170529 4.72680045 0 0 Z " fill="#D2C09F" transform="translate(70,183)"/>
<path d="M0 0 C1.134375 0.020625 2.26875 0.04125 3.4375 0.0625 C1.625 2.0625 1.625 2.0625 -0.5625 4.0625 C-1.5525 4.0625 -2.5425 4.0625 -3.5625 4.0625 C-3.5625 5.0525 -3.5625 6.0425 -3.5625 7.0625 C-2.9025 7.3925 -2.2425 7.7225 -1.5625 8.0625 C-2.2225 8.7225 -2.8825 9.3825 -3.5625 10.0625 C-5.05356457 7.08037087 -4.68191467 4.34640342 -4.5625 1.0625 C-3.5625 0.0625 -3.5625 0.0625 0 0 Z " fill="#B79A73" transform="translate(43.5625,164.9375)"/>
<path d="M0 0 C0.66 0 1.32 0 2 0 C2 2.64 2 5.28 2 8 C3.98 8 5.96 8 8 8 C7.67 8.66 7.34 9.32 7 10 C2.52459016 11.26229508 2.52459016 11.26229508 0 10 C-0.89093449 6.35526801 -1.23666047 3.57257469 0 0 Z " fill="#A3773F" transform="translate(48,108)"/>
<path d="M0 0 C0.33 0 0.66 0 1 0 C1.33 6.93 1.66 13.86 2 21 C0.68 20.67 -0.64 20.34 -2 20 C-1.84660156 19.33613281 -1.69320312 18.67226562 -1.53515625 17.98828125 C-0.89226979 14.39844078 -0.64966009 10.82204581 -0.4375 7.1875 C-0.39431641 6.49462891 -0.35113281 5.80175781 -0.30664062 5.08789062 C-0.20138547 3.39211314 -0.10027137 1.69607948 0 0 Z " fill="#E4D38C" transform="translate(115,58)"/>
<path d="M0 0 C1.3274855 3.98245651 -0.00092171 6.44789543 -1.4375 10.1875 C-1.80198242 11.16879883 -1.80198242 11.16879883 -2.17382812 12.16992188 C-2.7743293 13.78303286 -3.38609203 15.3919435 -4 17 C-4.33 17 -4.66 17 -5 17 C-5.49940808 10.88225104 -4.24900602 7.97504047 -1 3 C-1.66 2.67 -2.32 2.34 -3 2 C-2.01 1.34 -1.02 0.68 0 0 Z " fill="#D3C0A3" transform="translate(211,50)"/>
<path d="M0 0 C0.33 0 0.66 0 1 0 C1 1.65 1 3.3 1 5 C2.32 5.33 3.64 5.66 5 6 C1.04 6 -2.92 6 -7 6 C-6.67 4.68 -6.34 3.36 -6 2 C-4.68 2.66 -3.36 3.32 -2 4 C-1.34 2.68 -0.68 1.36 0 0 Z " fill="#9E7642" transform="translate(52,149)"/>
<path d="M0 0 C3.05917167 0.33990796 4.80401508 0.85698398 7.3125 2.6875 C9.45553291 5.62424881 9.32316568 7.44517748 9 11 C8.34 10.01 7.68 9.02 7 8 C6.175 7.175 5.35 6.35 4.5 5.5 C2 3 2 3 0 0 Z " fill="#E1D4A6" transform="translate(162,175)"/>
<path d="M0 0 C2.875 -0.125 2.875 -0.125 6 0 C6.66 0.66 7.32 1.32 8 2 C6.18884044 3.81115956 3.38721773 3.38199448 0.9375 3.5625 C-0.16722656 3.64628906 -1.27195312 3.73007813 -2.41015625 3.81640625 C-3.69212891 3.90728516 -3.69212891 3.90728516 -5 4 C-5.33 3.34 -5.66 2.68 -6 2 C-4.02 2 -2.04 2 0 2 C0 1.34 0 0.68 0 0 Z " fill="#C9AF67" transform="translate(89,95)"/>
<path d="M0 0 C2.0625 0.4375 2.0625 0.4375 4 1 C3.67 1.99 3.34 2.98 3 4 C1.68 3.67 0.36 3.34 -1 3 C-1 3.66 -1 4.32 -1 5 C-1.99 5 -2.98 5 -4 5 C-4.66 3.68 -5.32 2.36 -6 1 C-4.7934375 1.0309375 -4.7934375 1.0309375 -3.5625 1.0625 C-1.06645115 1.29633621 -1.06645115 1.29633621 0 0 Z " fill="#AC8A4A" transform="translate(65,199)"/>
<path d="M0 0 C1.485 0.99 1.485 0.99 3 2 C3.42915004 6.54899046 2.99170782 9.89210262 1 14 C0.67 14 0.34 14 0 14 C0.33 11.03 0.66 8.06 1 5 C0.34 4.67 -0.32 4.34 -1 4 C-0.34 4 0.32 4 1 4 C0.67 2.68 0.34 1.36 0 0 Z " fill="#EAE2BA" transform="translate(117,32)"/>
<path d="M0 0 C0.99 0.33 1.98 0.66 3 1 C2.67 2.98 2.34 4.96 2 7 C1.01 7.33 0.02 7.66 -1 8 C-0.979375 7.21625 -0.95875 6.4325 -0.9375 5.625 C-0.81315937 3.01885039 -0.81315937 3.01885039 -2 1 C-1.34 0.67 -0.68 0.34 0 0 Z " fill="#C09F5B" transform="translate(80,144)"/>
<path d="M0 0 C1.25955231 3.77865693 0.48087189 5.03411786 -0.9375 8.6875 C-1.31777344 9.68136719 -1.69804687 10.67523438 -2.08984375 11.69921875 C-2.39019531 12.45847656 -2.69054687 13.21773437 -3 14 C-3.33 14 -3.66 14 -4 14 C-4 11.36 -4 8.72 -4 6 C-3.34 5.67 -2.68 5.34 -2 5 C-1.27840576 3.35636866 -0.60648579 1.68949614 0 0 Z " fill="#E2D9BD" transform="translate(189,112)"/>
<path d="M0 0 C0.33 0 0.66 0 1 0 C1.36923077 7.50769231 1.36923077 7.50769231 -0.5 10 C-0.995 10.33 -1.49 10.66 -2 11 C-2.28571429 3.57142857 -2.28571429 3.57142857 0 0 Z " fill="#C8B080" transform="translate(77,190)"/>
<path d="M0 0 C1.32 0.33 2.64 0.66 4 1 C3.34 1.66 2.68 2.32 2 3 C2 3.99 2 4.98 2 6 C0.68 6.33 -0.64 6.66 -2 7 C-2.33 6.01 -2.66 5.02 -3 4 C-2.67 3.34 -2.34 2.68 -2 2 C-1.34 2 -0.68 2 0 2 C0 1.34 0 0.68 0 0 Z " fill="#B2924F" transform="translate(72,175)"/>
<path d="M0 0 C0.99 0 1.98 0 3 0 C3.93423645 3.01031744 4.04449911 3.86650268 3 7 C2.01 7 1.02 7 0 7 C0 4.69 0 2.38 0 0 Z " fill="#A8814E" transform="translate(42,191)"/>
<path d="M0 0 C2.375 -0.1875 2.375 -0.1875 5 0 C5.66 0.99 6.32 1.98 7 3 C4.125 3.625 4.125 3.625 1 4 C0.34 3.34 -0.32 2.68 -1 2 C-0.67 1.34 -0.34 0.68 0 0 Z " fill="#A4783F" transform="translate(52,202)"/>
<path d="M0 0 C-0.33 1.98 -0.66 3.96 -1 6 C-3 4.625 -3 4.625 -5 3 C-5 2.34 -5 1.68 -5 1 C-2 0 -2 0 0 0 Z " fill="#B4946C" transform="translate(48,197)"/>
<path d="M0 0 C0.99 0.33 1.98 0.66 3 1 C2.43628586 4.26954202 1.50037734 5.82575883 -1 8 C-1.04241723 5.66705225 -1.04092937 3.33297433 -1 1 C-0.67 0.67 -0.34 0.34 0 0 Z " fill="#B79A6C" transform="translate(51,175)"/>
<path d="M0 0 C0.99 0 1.98 0 3 0 C2.01 3.3 1.02 6.6 0 10 C-0.66 8.68 -1.32 7.36 -2 6 C-1.34 6 -0.68 6 0 6 C0 4.02 0 2.04 0 0 Z " fill="#E5D9BB" transform="translate(180,132)"/>
<path d="M0 0 C0.66 0 1.32 0 2 0 C1.74438677 2.3431213 1.40729228 4.67843403 1 7 C0.01 7.495 0.01 7.495 -1 8 C-1.125 2.25 -1.125 2.25 0 0 Z " fill="#D4C89A" transform="translate(183,124)"/>
<path d="M0 0 C0.33 0 0.66 0 1 0 C1 3.63 1 7.26 1 11 C0.01 11 -0.98 11 -2 11 C-1.855625 10.484375 -1.71125 9.96875 -1.5625 9.4375 C-0.84190099 6.31490429 -0.42733561 3.17449308 0 0 Z " fill="#C8A363" transform="translate(83,104)"/>
<path d="M0 0 C0.33 0 0.66 0 1 0 C1.25 3.25 1.25 3.25 1 7 C-0.32 8.32 -1.64 9.64 -3 11 C-2.01 7.37 -1.02 3.74 0 0 Z " fill="#DDD2AF" transform="translate(179,99)"/>
<path d="M0 0 C0.99 0.33 1.98 0.66 3 1 C2.67 2.32 2.34 3.64 2 5 C0.68 5 -0.64 5 -2 5 C-2 4.01 -2 3.02 -2 2 C-1.34 2 -0.68 2 0 2 C0 1.34 0 0.68 0 0 Z " fill="#DFCC7F" transform="translate(113,42)"/>
</svg>
